<?xml version="1.0" encoding="UTF-8"?>
<svg version="1.1" viewBox="0 0 1600 1600" width="1280" height="1280" xmlns="http://www.w3.org/2000/svg">
<path transform="translate(0)" d="m0 0h1600v1600h-1600v-1600z" fill="#FDFDFD"/>
<path transform="translate(791 536)" d="m0 0c0.987-0.00659 1.97-0.0132 2.99-0.02 1.62 0.0121 1.62 0.0121 3.28 0.0244 1.73-0.0049 1.73-0.0049 3.49-0.00991 3.2-0.00603 6.4 0.00142 9.59 0.0145 3.45 0.0109 6.9 0.00449 10.3 2.16e-4 6.76-0.00564 13.5 0.00469 20.3 0.0203 7.88 0.0175 15.8 0.019 23.6 0.0196 14.1 0.00169 28.2 0.0175 42.2 0.0415 13.6 0.0232 27.3 0.0374 40.9 0.041 0.838 2.23e-4 1.68 4.46e-4 2.54 6.75e-4 1.69 4.43e-4 3.38 8.85e-4 5.07 0.00133 1.25 3.29e-4 1.25 3.29e-4 2.52 6.65e-4 0.831 2.16e-4 1.66 4.32e-4 2.52 6.55e-4 13 0.00371 26 0.0151 39.1 0.0275 4.71 0.00442 9.41 0.00786 14.1 0.0106 7.48 0.00446 15 0.0123 22.4 0.0268 3.41 0.00655 6.83 0.0111 10.2 0.0125 35.4 0.0168 35.4 0.0168 51 2.85 0.972 0.176 1.94 0.352 2.95 0.533 31.3 5.92 63.2 18.5 85.9 41.8v2h2c1.79 1.98 3.43 3.96 5.06 6.06 0.49 0.631 0.979 1.26 1.48 1.91 14.2 18.6 23.4 39.7 26.5 63 0.112 0.833 0.224 1.67 0.34 2.52 2.49 22.2 0.702 45.6-7.34 66.5-0.247 0.66-0.495 1.32-0.75 2-9.33 24.5-27.3 42.2-49.3 56-0.774 0.487-1.55 0.973-2.35 1.47-34.5 21.3-77.1 29.4-116 38.8-9.5 2.32-18.8 4.83-28.1 8-1.14 0.385-2.28 0.771-3.45 1.17-33.6 11.5-66.7 25.4-85.1 57.5-1.28 2.05-2.6 4.03-4 6h-1c-0.445-6.01 0.814-9.65 3.56-14.8 0.364-0.701 0.728-1.4 1.1-2.13 3.01-5.69 6.32-11 10.3-16.1 0.63-0.794 1.26-1.59 1.91-2.41 9.72-11.5 22.1-20.2 35.1-27.6 1.08-0.647 2.16-1.29 3.28-1.96 18.4-10.8 38.1-19.8 57.7-28 7.87-3.31 15.5-7.06 23-11 0.62-0.318 1.24-0.636 1.88-0.963 31.5-16.1 57-36.5 68.4-71.2 11.1-35.9 7.88-79.8-9.45-113-5.06-9.13-11.7-18.2-20.2-24.4-0.553-0.428-1.11-0.856-1.68-1.3v-2c-0.514-0.241-1.03-0.482-1.56-0.73-2.6-1.35-5.07-2.86-7.57-4.39-26-16-54.9-21.5-85.1-22.5-0.877-0.0314-1.75-0.0628-2.66-0.0952-0.766-0.0239-1.53-0.0479-2.32-0.0725-2.25-0.141-4.49-0.392-6.72-0.676-5.54-0.62-11-0.637-16.6-0.627-1.12-0.00175-2.24-0.0035-3.4-0.00531-3.68-0.00438-7.36-0.0015-11 0.00189-2.56-6.74e-4 -5.13-0.00164-7.69-0.0029-5.36-0.00147-10.7 5.63e-4 -16.1 0.00534-6.2 0.00546-12.4 0.00366-18.6-0.00183-5.97-0.00507-11.9-0.00455-17.9-0.00162-2.54 6.69e-4 -5.08-1.58e-4 -7.62-0.00248-3.53-0.00252-7.07 0.00131-10.6 0.0069-1.06-0.00202-2.12-0.00405-3.2-0.00613-0.956 0.00282-1.91 0.00564-2.9 0.00854-1.25 5.66e-4 -1.25 5.66e-4 -2.53 0.00114-1.91-0.0822-1.91-0.0822-2.89 1.13-0.125 1.92-0.178 3.84-0.205 5.76-0.0199 1.27-0.0399 2.53-0.0604 3.84-0.0171 1.43-0.034 2.87-0.0507 4.3-0.0208 1.52-0.0419 3.05-0.0632 4.57-0.0573 4.25-0.106 8.5-0.153 12.8-0.0299 2.72-0.0614 5.44-0.093 8.16-0.399 34.9-0.483 69.9-0.496 105-0.00161 4.17-0.00453 8.33-0.00871 12.5-0.0306 30.7 0.131 61.5 0.701 92.2 0.404 21.8 0.589 43.6 0.56 65.5-0.00596 4.6-0.00222 9.21 0.00357 13.8 0.00358 3.63 0.00248 7.26-1.28e-4 10.9-6.63e-4 1.7 1.38e-4 3.41 0.00248 5.11 0.00251 2.32-0.00128 4.64-0.0069 6.96-7.96e-4 1.31-0.00159 2.62-0.00241 3.97-0.127 2.91-0.127 2.91-1.13 3.91-2.42 0.106-4.82 0.147-7.24 0.145-0.758 0.00336-1.52 0.00672-2.3 0.0102-2.52 0.00954-5.03 0.0115-7.55 0.0125-1.74 0.00321-3.49 0.00657-5.23 0.0101-3.66 6e-3 -7.32 0.00784-11 0.00725-4.7-1.02e-4 -9.39 0.0136-14.1 0.0308-3.6 0.0111-7.2 0.0131-10.8 0.0126-1.73 0.00118-3.46 0.00563-5.19 0.0133-2.42 0.00976-4.84 0.00694-7.25 8.95e-4 -0.721 0.00562-1.44 0.0112-2.18 0.017-4.96-0.0316-4.96-0.0316-7.19-2.26-0.247-1.81-0.247-1.81-0.243-4.05-0.00505-1.28-0.00505-1.28-0.0102-2.58 0.00651-0.942 0.013-1.88 0.0197-2.86-0.0015-1.5-0.0015-1.5-0.00304-3.02-9.58e-4 -3.37 0.0124-6.73 0.0256-10.1 0.0022-2.41 0.00351-4.81 0.00398-7.22 0.00294-5.2 0.012-10.4 0.0263-15.6 0.0208-7.58 0.0294-15.2 0.0349-22.7 0.00928-12.4 0.0267-24.8 0.05-37.1 0.00139-0.742 0.00279-1.48 0.00422-2.25 0.0014-0.742 0.00279-1.48 0.00423-2.25 0.00282-1.5 0.00564-3 0.00846-4.5 0.00209-1.11 0.00209-1.11 0.00423-2.25 0.0152-8.15 0.0282-16.3 0.0404-24.4 0.00164-1.09 0.00164-1.09 0.00331-2.2 0.0183-12.3 0.0321-24.5 0.0439-36.8 0.00809-8.18 0.0223-16.4 0.0408-24.5 0.0556-25.9-0.012-51.7-0.493-77.6-0.0196-1.09-0.0392-2.18-0.0594-3.3 0.00404-27.9 0.00404-27.9-3.5-55.5h-2c-0.175 0.736-0.35 1.47-0.531 2.23-1.73 7.11-3.75 14.1-6.03 21-0.711 2.19-1.42 4.39-2.13 6.58-0.561 1.74-0.561 1.74-1.13 3.51-2.1 6.54-4.13 13.1-6.18 19.7-2.97 9.56-5.99 19.1-9.06 28.6-3.39 10.5-6.58 21.1-9.71 31.7-2.16 7.28-4.47 14.5-6.9 21.7-2.6 7.8-4.98 15.7-7.4 23.5-0.574 1.86-1.15 3.72-1.72 5.58-1.74 5.64-3.48 11.3-5.21 16.9-0.505 1.64-1.01 3.28-1.51 4.91-1.43 4.65-2.87 9.31-4.3 14-0.237 0.771-0.475 1.54-0.719 2.34-2.82 9.17-5.64 18.3-8.45 27.5-1.41 4.6-2.82 9.2-4.23 13.8-0.68 2.22-1.36 4.44-2.04 6.66-3.84 12.6-7.81 25.1-12 37.5-2.45 7.31-4.74 14.7-6.87 22.1-0.659 2.25-1.32 4.51-1.98 6.76-0.316 1.08-0.633 2.16-0.958 3.27-1.41 4.77-2.88 9.53-4.37 14.3-0.371 1.19-0.371 1.19-0.749 2.41-1.69 5.35-1.69 5.35-2.81 6.47-1.52 0.0718-3.04 0.0839-4.56 0.0625-0.826-0.00902-1.65-0.018-2.5-0.0273-0.638-0.0116-1.28-0.0232-1.93-0.0352-1.25-4.29-0.697-6.63 0.938-10.8 2.49-6.54 4.69-13.1 6.81-19.8 0.338-1.06 0.677-2.13 1.03-3.22 5.16-16.3 10.2-32.6 15.2-48.9 3.19-10.4 6.39-20.8 9.62-31.2 0.431-1.39 0.861-2.77 1.29-4.16 2.24-7.24 4.59-14.4 7.22-21.5 1.42-3.99 2.53-8.05 3.64-12.1 2.47-8.83 5.18-17.6 8-26.3 1.97-6.08 3.91-12.2 5.81-18.3 0.218-0.701 0.437-1.4 0.662-2.12 0.863-2.77 1.73-5.55 2.59-8.32 2.21-7.12 4.46-14.2 6.84-21.3 1.78-5.29 3.4-10.6 4.86-16 3.01-10.8 6.41-21.5 9.81-32.1 0.286-0.899 0.573-1.8 0.867-2.72 1.15-3.6 2.29-7.2 3.44-10.8 2.32-7.28 4.61-14.6 6.88-21.9 0.512-1.64 0.512-1.64 1.04-3.32 2.02-6.51 3.98-13 5.89-19.6 1.16-3.97 2.34-7.93 3.51-11.9 0.578-1.96 1.15-3.93 1.72-5.9 0.795-2.76 1.61-5.51 2.42-8.26 0.235-0.833 0.47-1.67 0.712-2.52 0.231-0.768 0.463-1.54 0.701-2.33 0.195-0.67 0.39-1.34 0.591-2.03 2.13-4.18 5.35-5.17 9.8-5.17z" fill="#CF2B24"/>
<path transform="translate(467 536)" d="m0 0c0.732-2.92e-4 1.46-5.84e-4 2.22-8.85e-4 2.42 0.00139 4.84 0.017 7.26 0.0326 1.68 0.00373 3.35 0.00658 5.03 0.00858 4.41 0.00764 8.83 0.0273 13.2 0.0494 4.5 0.0205 9.01 0.0296 13.5 0.0397 8.84 0.0214 17.7 0.0556 26.5 0.0977 2.3 4.49 4.03 8.89 5.45 13.7 0.332 1.1 0.332 1.1 0.67 2.22 0.471 1.56 0.939 3.13 1.4 4.69 1.22 4.08 2.45 8.15 3.68 12.2 0.242 0.799 0.484 1.6 0.733 2.42 1.87 6.17 3.85 12.3 5.93 18.4 2.23 6.57 4.3 13.1 6.22 19.8 1.64 5.68 3.41 11.3 5.22 16.9 2.53 7.9 5.01 15.8 7.44 23.8 6.91 22.6 14 45.1 21.3 67.5 3.27 10.1 6.38 20.3 9.47 30.5 4.7 15.5 9.47 30.9 14.5 46.3 2.35 7.26 4.59 14.6 6.75 21.9 2.18 7.34 4.52 14.6 6.87 21.9 0.393 1.22 0.786 2.44 1.19 3.69 0.754 2.34 1.51 4.67 2.26 7.01 0.325 1.01 0.649 2.01 0.984 3.05 0.246 0.762 0.492 1.52 0.746 2.31 3.59 11.2 6.81 22.4 10 33.7 0.189 0.656 0.378 1.31 0.572 1.99 0.518 1.8 1.03 3.6 1.55 5.4 1.27 4.24 2.67 8.42 4.09 12.6-10.2 0.116-20.5 0.205-30.7 0.259-4.76 0.0261-9.52 0.0616-14.3 0.118-4.59 0.0542-9.18 0.0842-13.8 0.0972-1.75 0.00925-3.51 0.0273-5.26 0.0543-2.45 0.0362-4.9 0.0413-7.36 0.039-0.728 0.018-1.46 0.036-2.21 0.0545-2.03-0.0208-2.03-0.0208-5.39-0.622-3.03-3.71-4.24-8.23-5.69-12.8-0.388-1.19-0.388-1.19-0.783-2.4-0.849-2.61-1.69-5.23-2.53-7.85-0.547-1.68-1.09-3.37-1.64-5.05-6.73-20.8-13.2-41.7-19.7-62.6-1.01-3.23-2.02-6.47-3.03-9.7-2.93-9.35-5.81-18.7-8.68-28.1-4.04-13.2-8.12-26.4-12.4-39.5-1.52-4.7-3.01-9.4-4.45-14.1-1.97-6.41-3.98-12.8-6.01-19.2-0.74-2.34-1.48-4.68-2.22-7.01-0.383-1.21-0.766-2.42-1.16-3.66-5.94-18.8-11.9-37.6-17.7-56.4-0.259-0.839-0.519-1.68-0.786-2.54-3.04-9.84-6.05-19.7-9.05-29.5-5.27-17.4-5.27-17.4-10.8-34.7-0.227-0.704-0.455-1.41-0.689-2.13-0.949-2.83-1.6-4.6-3.75-6.74-1.85 1.85-1.49 5.01-1.75 7.5-1.19 10.3-3.38 20.5-5.47 30.7-1.37 6.75-2.69 13.5-4 20.3-0.454 2.33-0.91 4.66-1.37 6.99-1.43 7.3-2.77 14.6-3.96 22-0.549 3.18-1.23 6.31-1.96 9.45-0.887 3.9-1.65 7.82-2.43 11.7-0.157 0.779-0.313 1.56-0.475 2.36-1.46 7.33-2.83 14.7-4.21 22-1.1 5.89-2.21 11.8-3.32 17.7-0.211 1.12-0.211 1.12-0.427 2.26-2.15 11.4-4.34 22.8-6.55 34.2-0.128 0.657-0.255 1.31-0.386 1.99-0.655 3.37-1.31 6.74-1.96 10.1-0.131 0.676-0.263 1.35-0.398 2.05-0.267 1.37-0.534 2.75-0.801 4.12-2.95 15.2-5.89 30.3-8.6 45.6-3.91 22-8.33 43.9-12.7 65.8-0.825 4.16-1.64 8.32-2.45 12.5-0.361 1.84-0.722 3.68-1.08 5.53-0.162 0.841-0.323 1.68-0.49 2.55-1.12 5.7-1.12 5.7-2.24 6.81-2 0.203-2 0.203-4.44 0.25-0.803 0.0258-1.61 0.0516-2.43 0.0781-1.05-0.162-1.05-0.162-2.13-0.328-2-3-2-3-1.64-5.07 0.275-0.824 0.549-1.65 0.832-2.5 1.53-5.08 2.5-10.1 3.31-15.3 0.815-5.16 1.69-10.2 2.94-15.3 1.72-7.11 2.91-14.3 4.12-21.5 1.1-6.53 2.43-13 3.94-19.4 0.941-4.1 1.74-8.19 2.41-12.3 1.09-6.62 2.32-13.2 3.59-19.8 0.213-1.12 0.425-2.24 0.645-3.39 1.75-9.1 1.75-9.1 2.89-13.4 1.59-6.12 2.4-12.4 3.38-18.7 1.03-6.4 2.34-12.7 3.84-19 1.26-5.55 2.25-11.1 3.25-16.7 1.48-8.12 3.03-16.2 4.82-24.2 1-4.9 1.76-9.84 2.55-14.8 0.866-5.3 2.06-10.4 3.44-15.6 1.04-4.44 1.56-8.94 2.15-13.5 0.671-4.33 1.76-8.49 2.88-12.7 0.583-2.44 0.933-4.74 1.15-7.23 0.312-3.54 1.03-6.81 1.94-10.2 1.42-5.41 2.35-10.8 3.13-16.3 0.393-2.66 0.895-5.27 1.43-7.91 0.951-4.84 1.9-9.67 2.84-14.5 0.317-1.62 0.634-3.25 0.952-4.87 1.54-7.87 3.08-15.7 4.46-23.6 0.174-0.998 0.349-2 0.528-3.02 0.306-1.78 0.605-3.56 0.895-5.34 0.848-4.94 2.02-9.15 4.33-13.6 3.58-2.39 6.1-2.27 10.2-2.23z" fill="#CF2B24"/>
<path transform="translate(1063,670)" d="m0 0 2 2c2.66 0.463 2.66 0.463 5.62 0.625 1.5 0.112 1.5 0.112 3.04 0.227 0.771 0.049 1.54 0.098 2.34 0.148 0.66-1.32 1.32-2.64 2-4v4c0.784-0.33 1.57-0.66 2.38-1 2.9-1.11 4.52-1 7.62-1v6h2c0.33-0.66 0.66-1.32 1-2 0.33 4.95 0.66 9.9 1 15h3c2.8 5 4.35 10.3 4 16h2v5h-2v4c0.646 0.238 1.29 0.477 1.96 0.723 2.04 1.28 2.04 1.28 2.62 3.34 0.0561 1.18 0.0561 1.18 0.113 2.38 0.164 2.85 0.398 4.82 1.31 7.56h2c1.5 6.87 0.528 10.9-3 17-8.34 12.1-24.8 23.3-39 27-1.63 0.531-3.25 1.07-4.88 1.62-2.38 0.792-4.75 1.58-7.12 2.38-0.394 0.467-0.789 0.933-1.2 1.41-3.23 2.83-7.73 3.46-11.8 4.52-4.94 1.4-7.45 3.2-11 7.07l-3.12 1c-0.949 0.33-1.9 0.66-2.88 1-0.336 0.744-0.673 1.49-1.02 2.25-3.14 4.35-7.69 5.66-12.5 7.68-6.72 2.85-13 5.89-19.2 9.74-2.91 1.7-5.88 2.82-9.07 3.88-5.06 1.83-7.67 3.48-11.2 7.44-2.81 0.812-2.81 0.812-5 1-0.33 0.99-0.66 1.98-1 3-1.96 0.625-1.96 0.625-4.38 1-3.6 0.563-5.24 1.22-7.62 4l-2 2c-0.557 0.722-1.11 1.44-1.69 2.19-2.87 3.49-5.88 6.88-9.31 9.81h-2c-0.33 0.99-0.66 1.98-1 3-1.44 1.69-1.44 1.69-3 3h-2v2h-2c-0.66 1.65-1.32 3.3-2 5h-2c-0.227 0.639-0.454 1.28-0.688 1.94-1.31 2.06-1.31 2.06-3.75 2.75-0.846 0.103-1.69 0.206-2.56 0.312-0.99 0.33-1.98 0.66-3 1-0.165 0.66-0.33 1.32-0.5 2-0.165 0.66-0.33 1.32-0.5 2-0.99 0.33-1.98 0.66-3 1-0.33 0.66-0.66 1.32-1 2h2v2h-2c0.206 0.578 0.413 1.15 0.625 1.75 0.375 2.25 0.375 2.25-0.125 4.44-2.3 2.78-4.99 2.35-8.5 2.81-1.68 1.05-3.36 2.09-5.04 3.15-2.51 1.08-4.47 1.04-7.19 0.969-1.34-0.0262-1.34-0.0262-2.71-0.053-0.679-0.0225-1.36-0.045-2.06-0.0681-0.336-3.42-0.669-6.83-1-10.2-0.0954-0.968-0.191-1.94-0.289-2.93-0.0902-0.935-0.18-1.87-0.273-2.83-0.0838-0.859-0.168-1.72-0.254-2.6-0.164-2.12-0.184-4.25-0.184-6.38h-2c-1.4-2.8-1.25-4.9-1-8 1.12-1.56 1.12-1.56 3-3 0.483-0.425 0.967-0.851 1.46-1.29 4.24-3.71 4.24-3.71 6.54-3.71v-4h2c0.289-0.949 0.578-1.9 0.875-2.88 1.12-3.12 1.12-3.12 3.12-5.12v3h2c0.112-0.565 0.224-1.13 0.34-1.71 0.743-2.58 1.92-4.57 3.22-6.91 2.87-6.08 2.69-11.3 2.49-17.9-0.183-7.25 0.421-12.7 5.45-18.3 0.825-0.743 1.65-1.49 2.5-2.25 2.02-2.95 3.35-5.48 4-9-0.454 0.495-0.908 0.99-1.38 1.5-1.62 1.5-1.62 1.5-3.62 1.5v-2c-0.66-0.33-1.32-0.66-2-1 0.622-1.27 1.25-2.54 1.88-3.81 0.348-0.708 0.696-1.42 1.05-2.14 1.07-2.04 1.07-2.04 3.07-5.04h2c0.33 0.99 0.66 1.98 1 3l4-2c0.33 0.66 0.66 1.32 1 2 0.784-0.825 1.57-1.65 2.38-2.5 2.62-2.5 2.62-2.5 4.62-2.5v-2c6.43-0.99 6.43-0.99 13-2-0.976 0.0232-1.95 0.0464-2.96 0.0703-1.91 0.0271-1.91 0.0271-3.86 0.0547-1.26 0.0232-2.53 0.0464-3.83 0.0703-3.36-0.195-3.36-0.195-6.36-2.2 2.9-0.966 5.1-1.19 8.12-1.38 4.66-0.376 8.57-1.38 12.9-3 2.37-0.765 4.48-0.783 6.95-0.629l1-1c1.85-0.107 3.71-0.185 5.56-0.25 5.99-0.422 9.78-2.04 14.4-5.75-0.278 1.42-0.278 1.42-0.562 2.88-0.724 3.02-0.724 3.02 0.562 5.12 2.1-1.16 2.1-1.16 4-3 0.334-2.63 0.334-2.63 0-5h2c0.371-1.36 0.371-1.36 0.75-2.75 1.51-3.94 3.26-6.31 7.12-8.13 3.23-1.7 5.65-4.19 8.32-6.66 1.8-1.46 1.8-1.46 3.8-1.46 0.495-1.49 0.495-1.49 1-3h4c0.402-0.835 0.402-0.835 0.812-1.69 1.19-2.31 1.19-2.31 2.81-4.88 1.62-2.41 1.62-2.41 1.38-5.44h2c0.52-2.02 1-4.02 1.39-6.07 0.416-2.05 0.876-3.97 1.61-5.93 1.75-1.12 1.75-1.12 4-2 1.64-1.34 1.64-1.34 3.25-2.94 0.521-0.504 1.04-1.01 1.58-1.53 1.48-1.61 1.48-1.61 1.17-4.54 2.38-2.69 2.38-2.69 5-5h2c2.41-4.56 4.32-8.89 5.88-13.8 1.29-3.58 1.84-4.95 4.81-7.44 6.71-1.52 12.4-0.335 18.3 3.25z" fill="#FCF9F7"/>
<path transform="translate(710,603)" d="m0 0h1v11c0.99 0.495 0.99 0.495 2 1 0.186-0.928 0.186-0.928 0.375-1.88 0.625-2.12 0.625-2.12 2.62-4.12-0.33 1.65-0.66 3.3-1 5 0.99 0.33 1.98 0.66 3 1v-7c0.99 0.33 1.98 0.66 3 1l0.586 5.86c0.61 3.15 2.17 5.7 3.71 8.5 3.73 7.28 4.24 12.9 3.58 20.9-0.102 1.63-0.102 1.63-0.205 3.3-0.199 3.13-0.434 6.26-0.67 9.39-0.0951 1.57-0.187 3.13-0.273 4.7-0.544 9.12-0.544 9.12-1.73 10.3-0.229 2-0.457 3.99-0.68 5.99-0.365 2.29-1.09 4.05-2.32 6.01h-2v7h-1c-0.266 1.11-0.531 2.22-0.805 3.36-0.357 1.46-0.713 2.93-1.07 4.39-0.261 1.09-0.261 1.09-0.527 2.21-0.89 3.62-1.91 6.7-3.6 10-0.552 2.22-1.05 4.45-1.5 6.69-0.254 1.23-0.508 2.47-0.77 3.74-0.241 1.18-0.482 2.36-0.73 3.57-0.391 1.79-0.786 3.58-1.19 5.38-0.402 1.79-0.402 1.79-0.812 3.62h-2c-0.217 1.64-0.217 1.64-0.438 3.31-0.562 3.69-0.562 3.69-1.56 6.69h-2c0.0412 1.15 0.0825 2.31 0.125 3.5 0.0159 4.44-0.907 8.24-2.12 12.5h-2c-0.0606 0.626-0.121 1.25-0.184 1.9-0.126 1.23-0.126 1.23-0.254 2.48-0.122 1.22-0.122 1.22-0.246 2.46-0.316 2.16-0.316 2.16-1.32 4.16-0.767 3.37-1.48 6.75-2.18 10.1-0.269 0.947-0.539 1.89-0.816 2.87-0.66 0.33-1.32 0.66-2 1-0.727 1.98-1.4 3.98-2 6h-4c-0.33 2.31-0.66 4.62-1 7h-2c-0.33 5.28-0.66 10.6-1 16h-3c0.0412 1.18 0.0825 2.35 0.125 3.56 0.0148 4.16-0.813 7.5-2.12 11.4-1.32 0.33-2.64 0.66-4 1 0.33 0.99 0.66 1.98 1 3-1 3-1 3-3 4-0.33 0.99-0.66 1.98-1 3h-2c-0.33 0.99-0.66 1.98-1 3-0.722 0.639-1.44 1.28-2.19 1.94-3.66 3.38-5.15 7.98-6.99 12.5-1.82 2.55-1.82 2.55-5.52 3.41-1.09 0.0464-2.18 0.0928-3.3 0.141-3.16-8.64-6.16-17.1-8.22-26.1-0.879-3.25-2.07-6.27-3.34-9.39-2.06-5.13-3.2-9.87-3.79-15.4-0.589-2.84-1.4-5.01-2.54-7.66-2.57-6.2-3.7-12.5-4.86-19.1-0.22-1.19-0.441-2.39-0.668-3.62-0.537-2.92-1.06-5.83-1.58-8.75h-1c-0.25-2.25-0.25-2.25 0-5 2-2.31 2-2.31 4-4v3c1.29-1.78 2.55-3.57 3.81-5.38 1.06-1.5 1.06-1.5 2.14-3.02 2.64-4.23 3.8-8.81 5.04-13.6 0.22-0.834 0.441-1.67 0.668-2.53 4.06-15.8 6.38-31.2 7.33-47.5h-5v-5c-1.23 0.108-1.23 0.108-2.48 0.219-1.08 0.0928-2.16 0.186-3.27 0.281-1.07 0.0928-2.13 0.186-3.23 0.281-2.33 0.169-4.68 0.219-7.02 0.219-2.55-4.46-2.06-8.11-1-13 3.82-13.3 10.2-24.4 19-35 1.16 3.48 0.773 5.14 0.0625 8.69-0.195 0.994-0.389 1.99-0.59 3.01-0.156 0.759-0.312 1.52-0.473 2.3 1.32-2.31 2.64-4.62 4-7 1.49 0.495 1.49 0.495 3 1-0.99 3.96-1.98 7.92-3 12h-4v17c3.47 0.495 3.47 0.495 7 1-1.75 3.88-1.75 3.88-4 5h9v-2c0.701-0.247 1.4-0.495 2.12-0.75 7.14-3.11 12.8-7.73 16.1-14.9 0.68-1.76 1.33-3.53 1.95-5.32 0.859-2.04 0.859-2.04 2.86-3.04 0.417-1.48 0.755-2.99 1.06-4.5 2.81-11 9.49-23.9 16.9-32.5h2v-2h2v-2c1.28-0.247 2.56-0.495 3.88-0.75 3.3-0.792 3.3-0.792 5.69-3.12 0.594-2.11 0.594-2.11-0.0625-4.12-0.5-2-0.5-2 0.438-4.25 0.351-0.577 0.701-1.15 1.06-1.75z" fill="#FCF9F7"/>
<path transform="translate(795 1013)" d="m0 0c1.17 0.00214 1.17 0.00214 2.36 0.00432 0.888-0.00304 1.78-0.00607 2.69-0.0092 1.45 0.0107 1.45 0.0107 2.94 0.0217 1.01 9.57e-5 2.02 1.91e-4 3.05 2.9e-4 3.29 0.00373 6.58 0.0227 9.86 0.0427 2.24 0.00684 4.48 0.0133 6.72 0.0195 16.2 0.0639 32.3 0.381 48.5 1.17 1.83 3.15 2.31 5.65 2.53 9.27 0.0684 1.04 0.137 2.09 0.207 3.16 0.067 1.12 0.134 2.23 0.203 3.38 0.617 9.08 1.43 18.1 2.62 27.1 0.127 0.97 0.254 1.94 0.385 2.94 0.48 3.52 0.926 6.74 2.05 10.1 0.128 2.67 0.0439 5.32 0 8-12 0.0463-23.9 0.0818-35.9 0.104-5.55 0.0105-11.1 0.0246-16.7 0.0473-5.36 0.0217-10.7 0.0337-16.1 0.0389-2.05 0.00371-4.09 0.0109-6.14 0.0217-2.86 0.0144-5.72 0.0165-8.58 0.0156-1.28 0.0108-1.28 0.0108-2.59 0.0218-5.86-0.0207-5.86-0.0207-8.09-2.25 0.157-2.81 0.423-5.47 0.812-8.25 0.096-0.752 0.192-1.5 0.291-2.28 0.417-3.21 0.884-6.4 1.44-9.59 0.516-3.25 0.752-6.47 0.957-9.76 0.292-4.38 0.701-8.7 1.27-13.1 0.469-4.18 0.593-8.41 0.752-12.6 0.357-7.18 0.357-7.18 4.39-7.7z" fill="#CF2B24"/>
<path transform="translate(777 931)" d="m0 0c6.93 5.73 12.6 13.4 13.6 22.5 0.937 9.99-0.323 17.1-6.61 25-5.98 6.48-13.6 10.1-22.4 11-12 0-22.1-3.2-30.8-11.8-5.09-6.16-7.7-13.8-7.14-21.8 1.85-10.7 6.99-19.5 16-25.9 11.8-6.35 26-6.19 37.4 0.953z" fill="#CF2B24"/>
<path transform="translate(579,932)" d="m0 0c5.92 6.08 10.5 12.4 11 21 0.0786 1.03 0.157 2.07 0.238 3.13 0.293 7.22-0.399 12.7-4.24 18.9-0.366 0.614-0.732 1.23-1.11 1.86-4.52 6.3-11.8 9.63-18.9 12.1-12.9 1.86-22.8-2.13-33.2-9.19-6.78-6.93-9.3-15.6-9.22-25.1 0.991-7.75 5-15.9 10.7-21.3 13.6-9.95 30.8-11.7 44.8-1.44z" fill="#CF2B24"/>
<path transform="translate(853,932)" d="m0 0c6.73 6.6 11.3 13.9 11.5 23.5-0.0865 9.84-0.757 16.8-8.09 24-8.99 7.76-17.5 10-29.3 9.3-9.92-1.39-17.5-6.13-23.7-13.9-4.6-6.39-6.37-13.1-5.4-20.9 2.8-10.2 7.39-17.8 16-24 12.8-7.09 26.9-6.57 39 2z" fill="#CF2B24"/>
<path transform="translate(498,758)" d="m0 0c0.66 0.33 1.32 0.66 2 1-0.186 0.639-0.371 1.28-0.562 1.94-0.144 0.681-0.289 1.36-0.438 2.06 0.33 0.33 0.66 0.66 1 1 0.0406 1.67 0.0427 3.33 0 5h-2c0.0105 0.64 0.0209 1.28 0.0317 1.94 0.0417 2.92 0.0676 5.83 0.0933 8.75 0.0168 1.01 0.0335 2.01 0.0508 3.05 0.00645 0.976 0.0129 1.95 0.0195 2.96 0.0105 0.895 0.0209 1.79 0.0317 2.71-0.25 2.85-1.05 5-2.23 7.59h-2v5c1.65 0.33 3.3 0.66 5 1 0.66 1.98 1.32 3.96 2 6h2c-0.99-3.47-0.99-3.47-2-7 1.95 0.723 1.95 0.723 4 2 0.645 2.06 0.645 2.06 0.812 4.44 0.102 1.17 0.102 1.17 0.207 2.37-0.0195 2.19-0.0195 2.19-1.02 5.19h-2c-0.33-0.99-0.66-1.98-1-3-0.517 4.76 0.0166 7.38 2.38 11.6 3.36 6.17 3.96 12.5 4.62 19.4 1.49 0.495 1.49 0.495 3 1 0.196 2.08 0.381 4.17 0.562 6.25 0.104 1.16 0.209 2.32 0.316 3.52 0.103 2.75-0.0168 4.65-0.879 7.23h2c0.495 3.47 0.495 3.47 1 7h7c0.33 1.65 0.66 3.3 1 5h4c1.66 3.52 2.15 5.29 1 9 0.33 0.66 0.66 1.32 1 2-1.67 0.217-1.67 0.217-3.38 0.438-3.45 0.346-3.45 0.346-5.62 1.56v-2c-3.47 0.99-3.47 0.99-7 2v2c-1.06 1.69-1.06 1.69-3 3-6.03 0.237-9.11-2.3-13.4-6.11-1.7-2-2.21-3.32-2.6-5.89h-2c-0.103-0.598-0.206-1.2-0.312-1.81-0.504-2.25-0.504-2.25-2.16-3.52-1.95-2.12-2.18-3.66-2.66-6.48-0.249-1.39-0.249-1.39-0.504-2.81-0.242-1.45-0.242-1.45-0.488-2.93-0.334-1.92-0.669-3.84-1.01-5.75-0.143-0.85-0.286-1.7-0.434-2.58-0.348-2.15-0.348-2.15-1.43-4.11-1.22-10.6-1.18-21.4-1.29-32.1-0.0176-1.5-0.0419-3-0.0731-4.51-0.0421-2.14-0.0576-4.28-0.0666-6.43-0.0146-1.25-0.0292-2.51-0.0442-3.8 0.47-3.21 0.47-3.21 2.26-5.64 3.09-2.21 5.5-1.86 9.21-1.58v-3c0.33-0.866 0.66-1.73 1-2.62 1.75-5.92 1.23-11.4 0-17.4-0.5-6.3 0.0513-9.06 4-14z" fill="#FCF9F7"/>
<path transform="translate(364,1014)" d="m0 0c3.29-0.0579 6.58-0.0936 9.88-0.125 0.937-0.0168 1.87-0.0335 2.84-0.0508 0.896-0.00645 1.79-0.0129 2.71-0.0195 0.827-0.0105 1.65-0.0209 2.51-0.0317 2.06 0.227 2.06 0.227 4.06 2.23 0.439 2.36 0.439 2.36 0.711 5.33 0.108 1.1 0.217 2.2 0.328 3.33 0.111 1.18 0.222 2.37 0.336 3.59 1.18 11.6 2.95 23 5.18 34.5 0.619 3.19 1.2 6.39 1.76 9.6 0.161 0.904 0.322 1.81 0.488 2.74 0.0986 0.965 0.0986 0.965 0.199 1.95-1.58 1.58-3.2 1.13-5.4 1.13-0.934 0.00315-1.87 0.0063-2.83 0.00955-1.02-0.00202-2.03-0.00405-3.08-0.00613-1.56 0.00144-1.56 0.00144-3.14 0.0029-2.2 6.82e-4 -4.4-0.00117-6.59-0.00534-3.37-0.00534-6.75-5.85e-5 -10.1 0.00635-2.13-6.61e-4 -4.26-0.00194-6.39-0.00391-1.01 0.00202-2.03 0.00405-3.07 0.00613-0.938-0.00315-1.88-0.0063-2.84-0.00955-0.827-7.96e-4 -1.65-0.00159-2.51-0.00241-2.02-0.127-2.02-0.127-4.02-1.13 0.408-1.77 0.827-3.54 1.25-5.31 0.232-0.986 0.464-1.97 0.703-2.99 0.819-2.89 1.74-5.59 2.8-8.39 3.13-8.47 5.47-17.2 7.93-25.9 0.746-2.62 1.49-5.23 2.24-7.85 0.463-1.62 0.924-3.23 1.38-4.85 1.58-5.51 1.58-5.51 2.69-7.74z" fill="#CF2B24"/>
<path transform="translate(449 925)" d="m0 0c4.35 0.856 4.71 1.31 7.19 4.75 3.28 5.18 6.23 10.6 9.21 15.9 5.15 9.41 5.15 9.41 11.4 18.1h3c1.45-2.02 2.66-3.97 3.88-6.12 0.377-0.649 0.754-1.3 1.14-1.97 0.851-1.46 1.7-2.93 2.54-4.4 2.19-3.81 4.4-7.6 6.62-11.4 1.17-1.99 2.33-3.98 3.48-5.97 0.534-0.914 1.07-1.83 1.62-2.77 0.477-0.821 0.954-1.64 1.45-2.49 1.28-1.9 1.28-1.9 3.28-2.9 2-0.04 4-0.0435 6 0 1.65 3.65 2.29 6.64 2.45 10.6 0.066 1.66 0.066 1.66 0.133 3.35 0.0346 1.18 0.0693 2.37 0.105 3.59 0.0398 1.22 0.0796 2.44 0.121 3.7 0.351 13.2 0.487 26.6-0.808 39.7-1.88 1.88-4.5 1.18-6.99 1.23-2.01-0.23-2.01-0.23-5.01-2.23-0.309-2.84-0.309-2.84-0.223-6.43 0.0187-1.29 0.0374-2.58 0.0566-3.9 0.0332-1.37 0.0677-2.73 0.104-4.1 0.063-2.67 0.111-5.33 0.152-8 0.0296-1.19 0.0591-2.37 0.0896-3.6 0.0595-3.16 0.0595-3.16-2.18-5.97-0.368 0.605-0.735 1.21-1.11 1.83-1.69 2.77-3.38 5.53-5.07 8.29-0.578 0.951-1.16 1.9-1.75 2.88-3.07 4.99-6.16 9.62-10.1 14-2.96-0.317-4.56-0.544-6.67-2.72-0.752-1.16-0.752-1.16-1.52-2.34-0.587-0.888-1.17-1.78-1.78-2.69-1.54-2.46-3.08-4.93-4.6-7.4-0.444-0.717-0.888-1.43-1.34-2.17-0.883-1.43-1.76-2.87-2.62-4.31-0.406-0.665-0.812-1.33-1.23-2.02-0.359-0.596-0.717-1.19-1.09-1.81-1.24-1.84-1.24-1.84-4.15-3.54v36h-10c-1.74-1.74-1.14-4.13-1.15-6.5-0.00638-1.17-0.0128-2.35-0.0193-3.56-0.00111-1.28-0.00223-2.56-0.00337-3.88-0.00333-1.3-0.00666-2.61-0.0101-3.95-6e-3 -2.76-0.00784-5.53-0.00725-8.29 1.02e-4 -3.55-0.0135-7.09-0.0308-10.6-0.0138-3.37-0.0132-6.75-0.0144-10.1-0.00719-1.28-0.0144-2.55-0.0218-3.87 0.00308-1.18 0.00615-2.36 0.00932-3.57-0.00143-1.04-0.00285-2.08-0.00432-3.15 0.39-3.9 1.73-4.35 5.43-5.22z" fill="#CF2B24"/>
<path transform="translate(1093 926)" d="m0 0c1.28 0.00322 2.56 0.00645 3.87 0.00977 1.88-0.0242 1.88-0.0242 3.79-0.0488 8-0.00421 15.5 0.0949 22 5.19 5.63 6.98 7.15 12.3 6.97 21.3-0.595 5.4-3.55 8.28-7.44 11.7-2.88 2.12-2.88 2.12-4.88 2.12 2.34 6.14 5.25 10.9 9.51 16 1.51 2.07 2.07 3.54 2.49 6.04-3.42 0.0855-5.44-0.503-8-2.79-3.35-3.69-6.16-7.34-8.56-11.7-1.76-2.91-2.06-3.37-5.44-4.5h-4c-1.64-0.0348-1.64-0.0348-3.3-0.0703-3.24-0.0497-6.46-0.0893-9.7 0.0703-2.12 2.12-1.42 6.62-1.56 9.56-0.0648 1.21-0.0648 1.21-0.131 2.44-0.106 2-0.207 4-0.307 5.99-4.75 1.12-4.75 1.12-7 0-0.0463-7.66-0.0819-15.3-0.104-23-0.0104-3.56-0.0246-7.11-0.0473-10.7-0.0258-4.09-0.0356-8.17-0.0444-12.3-0.0103-1.28-0.0206-2.56-0.0313-3.88-1.51e-4 -1.18-3.02e-4 -2.36-4.58e-4 -3.58-0.00444-1.04-0.00888-2.09-0.0135-3.16 0.623-6.42 6.95-4.77 11.9-4.8z" fill="#CF2B24"/>
<path transform="translate(965 926)" d="m0 0c1.84 0.00483 1.84 0.00483 3.71 0.00977 1.19-0.0161 2.39-0.0322 3.62-0.0488 8.35-0.00457 16.5 0.263 23.3 5.67 4.63 5.86 6.89 9.61 6.81 17.1-0.00653 0.753-0.0131 1.51-0.0198 2.28-0.237 5.47-1.33 8.9-5.26 12.9-7.4 4.44-14.9 4.92-23.4 5.07-2.06 0.0507-4.13 0.105-6.19 0.164-0.901 0.0176-1.8 0.0351-2.73 0.0532-2.07-0.0706-2.07-0.0706-3.08 1.16-0.237 2.86-0.422 5.7-0.562 8.56-0.0648 1.21-0.0648 1.21-0.131 2.44-0.106 2-0.207 4-0.307 5.99-1.67 0.0427-3.33 0.0406-5 0-4.86-4.86-2.17-25-2.19-31.8 8.06e-5 -0.981 1.61e-4 -1.96 2.44e-4 -2.97-0.00222-3.04-0.0206-6.08-0.0393-9.12-0.00293-1.93-0.00492-3.87-0.00586-5.8-0.00719-0.908-0.0144-1.82-0.0218-2.75 0.00308-0.836 0.00615-1.67 0.00932-2.53-0.00143-0.735-0.00285-1.47-0.00432-2.23 0.771-5.66 7.25-4.11 11.5-4.14z" fill="#CF2B24"/>
<path transform="translate(882 925)" d="m0 0c2.8 0.104 3.84 0.667 6.01 2.49 2.44 2.67 4.69 5.42 6.93 8.26 0.428 0.541 0.857 1.08 1.3 1.64 1.83 2.31 3.65 4.62 5.46 6.95 3.35 4.3 6.76 8.54 10.2 12.7 0.457 0.557 0.914 1.11 1.38 1.69 2.17 2.58 3.35 3.91 6.62 5-0.0157-1.62-0.0157-1.62-0.0317-3.27-0.0361-4-0.0591-8-0.0781-12-0.0101-1.73-0.0237-3.46-0.041-5.2-0.0242-2.49-0.0356-4.97-0.0444-7.46-0.0103-0.777-0.0206-1.55-0.0313-2.35-4e-4 -1.91 0.104-3.81 0.227-5.72 2-2 2-2 4.13-2.23 0.803 0.0142 1.61 0.0284 2.43 0.043 1.21 0.00967 1.21 0.00967 2.44 0.0195 2 0.168 2 0.168 3 1.17 0.0939 1.87 0.117 3.75 0.114 5.62-7.55e-5 1.2-1.51e-4 2.4-2.29e-4 3.64-0.00516 1.31-0.0103 2.61-0.0156 3.96-0.00186 1.34-0.00329 2.69-0.00429 4.03-0.00382 3.54-0.0137 7.09-0.0247 10.6-0.0102 3.61-0.0148 7.23-0.0198 10.8-0.0107 7.09-0.0278 14.2-0.0488 21.3-4.7 2.09-4.7 2.09-7.39 1.27-5.93-3.58-9.49-7.33-13.3-13.1-3.23-4.55-6.91-8.65-10.6-12.8-2.65-2.99-5.11-5.98-7.36-9.28-1.99-3.33-1.99-3.33-5.29-4.11 0.33 12.9 0.66 25.7 1 39-9 0-9 0-12-2-0.0463-7.53-0.0819-15.1-0.104-22.6-0.0104-3.5-0.0246-6.99-0.0473-10.5-0.0258-4.02-0.0356-8.03-0.0444-12-0.0103-1.26-0.0206-2.52-0.0313-3.81-1.51e-4 -1.16-3.02e-4 -2.32-4.58e-4 -3.52-0.00444-1.03-0.00888-2.05-0.0135-3.11 0.375-3.81 1.7-4.31 5.3-5.19z" fill="#CF2B24"/>
<path transform="translate(607 925)" d="m0 0c6 1.06 8.27 5.03 11.9 9.69 0.638 0.781 1.28 1.56 1.93 2.37 2.94 3.61 5.8 7.27 8.62 11 0.438 0.575 0.876 1.15 1.33 1.74 0.848 1.12 1.69 2.24 2.53 3.36 3.41 4.49 6.88 8.42 11.6 11.6-0.0157-1.67-0.0157-1.67-0.0317-3.36-0.0361-4.11-0.0591-8.22-0.0781-12.3-0.0101-1.78-0.0237-3.56-0.041-5.34-0.0242-2.56-0.0356-5.11-0.0444-7.67-0.0103-0.799-0.0206-1.6-0.0313-2.42-3.99e-4 -1.96 0.104-3.91 0.227-5.87 2-2 2-2 4.16-2.2 1.22 0.0348 1.22 0.0348 2.46 0.0703 1.23 0.0271 1.23 0.0271 2.48 0.0547 0.94 0.0348 0.94 0.0348 1.9 0.0703 3.61 7.22 2.03 17.9 1.62 25.8-0.0489 1.06-0.0978 2.12-0.148 3.21-0.102 2.21-0.207 4.42-0.315 6.62-0.214 4.44-0.403 8.87-0.592 13.3-0.185 4.35-0.377 8.69-0.57 13-3.88 1.29-5.29 0.634-9-1-2.38-2.06-2.38-2.06-5-5-0.597-0.652-1.19-1.3-1.81-1.98-4.22-4.65-8.21-9.46-12.1-14.4-3.07-3.85-6.24-7.61-9.41-11.4-1.69-2.25-1.69-2.25-1.69-4.25-1.32-0.33-2.64-0.66-4-1 0.162 0.667 0.325 1.33 0.492 2.02 0.608 3.57 0.652 7.05 0.641 10.7 9.57e-4 0.723 0.00191 1.45 0.0029 2.19 6.78e-4 1.52-0.00115 3.04-0.00534 4.56-0.00539 2.33-2.5e-5 4.67 0.00635 7-6.6e-4 1.48-0.00194 2.96-0.00391 4.43 0.00202 0.701 0.00405 1.4 0.00613 2.12-0.024 4.9-0.024 4.9-1.14 6.02-7.46 0.361-7.46 0.361-11-2-0.374-2.43-0.374-2.43-0.372-5.52-0.00623-1.15-0.0125-2.31-0.0189-3.5 0.00921-1.25 0.0184-2.5 0.0279-3.79-4.99e-4 -1.28-9.97e-4 -2.56-0.00151-3.88 8.98e-5 -2.71 0.0105-5.42 0.0286-8.13 0.0227-3.48 0.0232-6.95 0.0165-10.4-0.00414-3.31 0.00783-6.62 0.0189-9.93-9.11e-4 -1.25-0.00182-2.5-0.00276-3.79 0.00953-1.15 0.0191-2.31 0.0289-3.5 0.00461-1.02 0.00921-2.04 0.014-3.09 0.412-3.84 1.73-4.31 5.39-5.12z" fill="#CF2B24"/>
<path transform="translate(712,929)" d="m0 0c2 3 2 3 1.69 5.56-0.688 2.44-0.688 2.44-1.69 4.44-3.23-0.472-6.2-1.06-9.31-2.06-7.08-1.8-12.3-1.69-18.7 2.06h-2c0.0619 1.26 0.124 2.52 0.188 3.81 0.0348 0.708 0.0696 1.42 0.105 2.14 0.568 2.25 0.568 2.25 2.84 3.68 3.17 1.5 6.23 2.42 9.62 3.3 16.2 4.5 16.2 4.5 20.2 11.1 2.14 4.06 2.4 7.44 2 12-2.07 5.76-5.59 9.37-11 12-10.1 3.8-19.9 2.15-30-0.977-2.55-1.17-4.67-2.43-7-4 0.25-2.88 0.25-2.88 1-6 1.68-1.31 1.68-1.31 4-2 2.78 0.68 2.78 0.68 5.94 1.88 7.47 2.51 15.4 3.66 23.1 1.12 1.82-3.64 1.25-7.24 0-11-4.1-1.6-8.18-2.78-12.4-3.9-15.6-4.19-15.6-4.19-20.6-10.8-1.64-5.68-0.963-10.3 1.75-15.5 5.51-6.55 11.1-9.9 19.6-10.7 6.88-0.0704 14.5 0.879 20.7 3.97z" fill="#CF2B24"/>
<path transform="translate(841 937)" d="m0 0c5.43 4.04 9.63 8.18 11.2 14.9 0.817 5.84 0.667 11.3-1.62 16.8-3.28 4.05-6.88 7.65-11.9 9.31-8.19 0.775-15.5 1.24-22.2-4.18-4.9-4.93-7.09-8.74-7.37-15.8 0.308-6.44 1.77-11 6.21-15.8 7.39-6.72 16.1-8.15 25.7-5.25z" fill="#FEFEFE"/>
<path transform="translate(567 937)" d="m0 0c5.52 3.36 9.25 7.73 11.2 13.9 0.336 3.56 0.336 3.56 0.375 7.44 0.0284 1.28 0.0567 2.55 0.0859 3.87-0.674 5.4-3.3 9.14-7.52 12.5-5.99 4.46-12.8 3.61-19.9 3.19-5.61-0.982-9.08-4.61-12.6-8.89-3.54-5.14-3.8-10-2.93-16 1.27-5.68 4.4-11.2 9.35-14.3 7.23-3.67 14.2-3.9 21.9-1.74z" fill="#FEFEFE"/>
<path transform="translate(768 937)" d="m0 0c5.43 3.1 8.75 8.75 10.7 14.6 0.527 6.94 0.689 13-3 19-4.06 4.37-8.4 6.77-14.3 7.3-1.19 0.00387-2.37 0.00773-3.6 0.0117-1.18 0.0168-2.37 0.0335-3.59 0.0508-6.39-0.669-10.3-3.63-14.5-8.36-3.59-4.49-4.14-9.39-4-15 1.04-5.46 2.97-10.1 7-14 7.62-5.15 16.5-7.29 25.3-3.56z" fill="#FEFEFE"/>
<path transform="translate(1167 926)" d="m0 0c3.12 1.56 4.06 4.23 5.46 7.27 0.329 0.683 0.659 1.37 0.998 2.07 4.4 9.23 8.51 18.6 12.7 27.9 3.19 7.17 6.46 14.3 9.83 21.4 1.07 2.36 1.07 2.36 1.07 3.36-3.31-0.188-3.31-0.188-7-1-1.62-1.94-1.62-1.94-3-5-1.65-3.3-3.3-6.6-5-10h-32c-2.55 4.84-2.55 4.84-5.09 9.69-1.45 2.74-2.71 5.1-4.91 7.31h-3c-1.51-4.61 0.298-7.6 2.3-11.8 0.355-0.762 0.71-1.52 1.08-2.31 1.15-2.47 2.32-4.94 3.5-7.41 0.791-1.69 1.58-3.37 2.37-5.06 1.17-2.5 2.34-5.01 3.52-7.51 3.34-7.12 6.55-14.3 9.63-21.5 3.24-7.39 3.24-7.39 7.57-7.43z" fill="#CF2B24"/>
<path transform="translate(1042,926)" d="m0 0c4.39 7.93 8.51 15.9 12.1 24.2 1.92 4.51 3.94 8.96 6.01 13.4 0.815 1.75 0.815 1.75 1.65 3.53 1.09 2.33 2.18 4.66 3.28 6.98 0.754 1.61 0.754 1.61 1.52 3.26 0.453 0.961 0.906 1.92 1.37 2.91 1.06 2.58 1.66 4.95 2.1 7.7-2.79-0.164-2.79-0.164-6-1-1.9-2.4-1.9-2.4-3.38-5.38-0.503-0.977-1.01-1.95-1.52-2.96-1.1-2.66-1.1-2.66-1.1-5.66h-2v-2c-11.2 0.33-22.4 0.66-34 1-0.66 1.98-1.32 3.96-2 6-0.632 1.43-1.3 2.85-2 4.25-0.33 0.665-0.66 1.33-1 2.02-1 1.73-1 1.73-3 3.73-2.62-0.375-2.62-0.375-5-1 1.55-3.92 3.17-7.81 4.81-11.7 0.721-1.71 0.721-1.71 1.46-3.45 1.26-2.9 2.65-5.71 4.08-8.52 3.53-6.99 6.55-14.2 9.63-21.4 6.9-15.9 6.9-15.9 13-15.9z" fill="#CF2B24"/>
<path transform="translate(645,1015)" d="m0 0c-1.76 7.86-4.06 15.4-6.66 23.1-1.31 3.82-2.56 7.64-3.7 11.5-0.321 1.09-0.321 1.09-0.649 2.2-0.4 1.37-0.789 2.74-1.17 4.11-1.18 4.01-2.49 6.56-5.82 9.13-2.79-0.0682-4.33-0.475-6.53-2.2-1.94-2.38-2.52-4.6-3.36-7.55-0.338-1.16-0.677-2.32-1.03-3.52-0.358-1.23-0.715-2.46-1.08-3.73-0.78-2.48-1.57-4.96-2.36-7.44-0.393-1.24-0.786-2.49-1.19-3.77-0.605-1.91-1.21-3.83-1.82-5.74-0.606-1.89-1.2-3.78-1.8-5.68-0.352-1.11-0.703-2.21-1.07-3.35-0.713-2.83-0.92-5.13-0.763-8.02 34.4-1.74 34.4-1.74 39 1z" fill="#CF2B24"/>
<path transform="translate(742,533)" d="m0 0c0.33 0.66 0.66 1.32 1 2 1.32-0.66 2.64-1.32 4-2 1.48 8.71 0.636 14.2-4.38 21.5-6.29 9.7-8.18 22.2-10 33.5-0.578 3.04-0.578 3.04-1.58 4.04-0.243 1.41-0.469 2.83-0.688 4.25-1.06 5.14-3.04 6.87-7.31 9.75-0.33-0.99-0.66-1.98-1-3-1.32 0.99-2.64 1.98-4 3-1.32-0.66-2.64-1.32-4-2v-3h-2c-0.193-4.82 0.243-8.5 2-13h2v-3h2c0.134-0.553 0.268-1.11 0.406-1.68 0.406-1.59 0.845-3.17 1.31-4.74 1.96-6.96 2.71-13.5 2.81-20.7 0.195-6.74 2.73-10.3 7.03-15.2 0.599-0.697 1.2-1.39 1.82-2.11 1.62-1.57 1.62-1.57 3.62-1.57v-2c4.47-4 4.47-4 7-4z" fill="#FCF9F7"/>
<path transform="translate(1114,851)" d="m0 0c7.43-0.286 7.43-0.286 11 2h-2v4l2 1h-2v6c-0.99 0.124-1.98 0.247-3 0.375-5.64 0.816-10.9 2.17-16.2 4.25-3.75 1.38-3.75 1.38-7.75 1.38v2c-7.08 2.38-14.1 2.7-21.6 3.21-5.42 0.412-10.3 1.05-15.4 2.79-0.33-0.66-0.66-1.32-1-2-0.763 0.103-1.53 0.206-2.31 0.312-0.887-0.103-1.77-0.206-2.69-0.312-2.19-2.82-3.35-5.5-4-9h-2c-0.33 0.66-0.66 1.32-1 2-0.66-0.33-1.32-0.66-2-1v-2c5.67-2.83 10.7-3.63 17-4v2c0.617-0.254 1.23-0.508 1.87-0.77 4.99-2.03 9.98-3.91 15.1-5.52 2.04-0.66 2.04-0.66 3.91-1.76 2.65-1.2 4.96-1.37 7.85-1.58 1.48-0.112 1.48-0.112 2.98-0.227 0.748-0.049 1.5-0.098 2.27-0.148v-1c2.79-0.167 5.58-0.334 8.38-0.5 0.794-0.0477 1.59-0.0954 2.41-0.145 5.99-0.355 5.99-0.355 8.22-0.355v-1z" fill="#FCF9F7"/>
<path transform="translate(358,934)" d="m0 0c5.61 0.33 11.2 0.66 17 1v2c5.44 1.49 5.44 1.49 11 3 0.54 18.1 0.54 18.1-3.2 25.3-4.32 4.03-12.3 3-17.9 3.12-0.893 0.0458-1.79 0.0915-2.71 0.139-2.52 0.0434-4.71-0.00285-7.17-0.576-3.25-3.43-4.5-6.44-4.81-11.1-0.0683-0.828-0.137-1.66-0.207-2.51 0.0618-7.49 4.43-14.1 8.02-20.4z" fill="#FCF9F7"/>
<path transform="translate(970 932)" d="m0 0c0.953 0.00322 1.91 0.00645 2.89 0.00977 1.4-0.0242 1.4-0.0242 2.83-0.0488 5.78-0.00407 9.9 0.556 15 3.36 4.86 5.24 5.5 8.91 5.39 15.9-0.498 3.94-1.45 6.04-4.3 8.79-7.13 4.34-18 4.07-26.1 3.27-1.68-0.639-3.35-1.3-5-2-0.0578-4.46-0.0935-8.92-0.125-13.4-0.0168-1.27-0.0335-2.54-0.0508-3.85-0.00645-1.21-0.0129-2.42-0.0195-3.67-0.0157-1.68-0.0157-1.68-0.0317-3.4 0.498-5.94 4.74-4.99 9.53-5.03z" fill="#FEFEFE"/>
<path transform="translate(1100 932)" d="m0 0c0.891-0.0206 1.78-0.0412 2.7-0.0625 7.17-0.0422 11.8 1.12 17.6 5.56 3.32 4.38 2.8 10.1 2.59 15.3-0.726 4.72-0.726 4.72-2.84 6.77-8.42 4.86-20.3 4.5-29.7 3.69-4.83-4.83-3.14-15.6-3.23-22 0.745-9.63 4.55-9.18 12.9-9.23z" fill="#FEFEFE"/>
<path transform="translate(961,1007)" d="m0 0h9v2c1.32 0.66 2.64 1.32 4 2v2c0.557 0.0619 1.11 0.124 1.69 0.188 2.31 0.812 2.31 0.812 4.69 3.25 4.23 4.13 8.91 4.75 14.6 5.56v3c0.66 0.33 1.32 0.66 2 1h-2v4c0.66 0.33 1.32 0.66 2 1-3.99 3.5-6.83 3.43-12 3.3-3.01-0.303-5.63-0.949-8.53-1.8-6.35-1.79-12.4-1.7-18.9-1.48-6.12 0.172-9.75-0.314-14.4-4.65-0.722-0.784-1.44-1.57-2.19-2.38 0.495-1.49 0.495-1.49 1-3-0.33-0.99-0.66-1.98-1-3 0.99-0.33 1.98-0.66 3-1v-3c0.82-0.193 1.64-0.387 2.48-0.586 1.08-0.26 2.16-0.521 3.27-0.789 1.07-0.255 2.13-0.51 3.23-0.773 2.59-0.732 4.73-1.45 7.02-2.85 0.33-0.66 0.66-1.32 1-2z" fill="#FCF9F7"/>
<path transform="translate(1253,926)" d="m0 0c2.12 0.375 2.12 0.375 4 1 0.0198 1.04 0.0396 2.08 0.0601 3.15 0.0768 3.9 0.165 7.79 0.257 11.7 0.038 1.68 0.0729 3.36 0.104 5.03-0.3 15.1-0.3 15.1 4.39 29.1 5.16 4.86 9.91 6.46 17 6.34 4.16-0.518 7.74-1.98 11.2-4.28 4.49-6.31 4.14-14.2 4.25-21.7 0.0329-1.65 0.0661-3.31 0.0996-4.96 0.0476-2.59 0.0922-5.17 0.131-7.76 0.0396-2.51 0.0911-5.02 0.144-7.53 0.00841-0.777 0.0168-1.55 0.0255-2.35 0.127-5.46 0.127-5.46 2.35-7.69h4c1.44 2.89 1.15 5.41 1.17 8.63 0.00656 0.997 0.00656 0.997 0.0132 2.01 0.176 37.1 0.176 37.1-5.24 44.1-7.07 6.55-14 7.93-23.6 7.64-7.43-0.851-13.1-4.15-18.4-9.39-4.11-6.67-4.16-13.5-4.17-21-0.00333-0.852-0.00666-1.7-0.0101-2.58-0.00504-1.79-0.00741-3.58-0.00725-5.38-0.0022-2.75-0.0204-5.5-0.0393-8.25-0.00293-1.74-0.00492-3.49-0.00586-5.23-0.00719-0.824-0.0144-1.65-0.0218-2.5 0.0234-5.79 0.0234-5.79 2.25-8.02z" fill="#CF2B24"/>
<path transform="translate(1176,841)" d="m0 0c6.7-0.745 12.3 1.42 18 5 1.14 1.98 1.14 1.98 2 4 0.527 0.464 1.05 0.928 1.6 1.41 2.03 2.3 1.84 4.07 1.84 7.09 0.0193 0.959 0.0387 1.92 0.0586 2.91-0.496 2.59-0.496 2.59-2.4 4.44-2.1 1.16-2.1 1.16-4.1 1.16v3c-9.69 1.5-9.69 1.5-14 0l-3-6c-2.33-1-4.66-2.01-7-3-0.938-2.69-0.938-2.69-1-5h-2v-2h2v-3h-2v-2h3v-2h2v-2c1.65-0.33 3.3-0.66 5-1v-3z" fill="#FCF9F7"/>
<path transform="translate(1208 926)" d="m0 0c1.07 0.00411 2.14 0.00822 3.25 0.0125 1.16 0.00193 2.32 0.00387 3.52 0.00586 1.22 0.0122 2.44 0.0245 3.69 0.0371 1.83 9.67e-4 1.83 9.67e-4 3.71 0.00195 9.09 0.0454 9.09 0.0454 10.2 1.19 0.114 1.53 0.16 3.06 0.177 4.59 0.0193 1.47 0.0193 1.47 0.0389 2.96 0.00739 1.07 0.0148 2.13 0.0224 3.23 0.00807 1.09 0.0161 2.18 0.0245 3.31 0.0139 2.32 0.0246 4.64 0.0324 6.96 0.0172 3.54 0.061 7.07 0.105 10.6 0.0101 2.25 0.0186 4.5 0.0254 6.75 0.0175 1.05 0.035 2.11 0.0531 3.2-0.0187 6.36-0.669 10.2-4.48 15.4-4.38 3.54-7.99 5.23-13.6 4.8-5.87-1.05-10.6-2.15-15.4-5.8-0.938-2.75-0.938-2.75-1-5 1.73-0.652 1.73-0.652 4-1 2.08 0.996 2.08 0.996 4.25 2.44 4.66 2.74 7.38 3.46 12.8 2.56 2.97-2.21 4.65-3.69 5.62-7.3 1.35-9.65 0.286-19.8-0.123-29.5-0.0477-1.18-0.0954-2.36-0.145-3.58-0.116-2.87-0.235-5.74-0.355-8.61-6.6-0.33-13.2-0.66-20-1-0.33-1.32-0.66-2.64-1-4 2-2 2-2 4.6-2.24z" fill="#CF2B24"/>
<path transform="translate(1323,926)" d="m0 0c2.12 0.375 2.12 0.375 4 1 0.0251 1.32 0.0501 2.63 0.0759 3.99 0.0947 4.91 0.195 9.83 0.296 14.7 0.0431 2.12 0.0848 4.24 0.125 6.36 0.0582 3.06 0.122 6.12 0.186 9.18 0.0167 0.938 0.0334 1.88 0.0506 2.84 0.126 5.69 0.558 11.2 1.27 16.9 0.888 0.0146 1.78 0.0292 2.69 0.0442 3.3 0.0612 6.6 0.135 9.91 0.218 1.43 0.0332 2.86 0.0612 4.28 0.084 2.06 0.0336 4.11 0.086 6.17 0.142 1.24 0.0262 2.47 0.0524 3.75 0.0793 3.36 0.453 4.77 1.14 7.21 3.43-0.33 0.99-0.66 1.98-1 3-5.52 0.0247-11 0.0428-16.6 0.0549-1.88 0.00504-3.76 0.0119-5.63 0.0205-2.7 0.0121-5.39 0.0178-8.09 0.0222-0.843 0.00516-1.69 0.0103-2.55 0.0156-5.95 5.75e-4 -5.95 5.75e-4 -8.17-1.11-0.0463-7.66-0.0819-15.3-0.104-23-0.0104-3.56-0.0246-7.11-0.0473-10.7-0.0258-4.09-0.0356-8.17-0.0444-12.3-0.0103-1.28-0.0206-2.56-0.0313-3.88-1.51e-4 -1.18-3.02e-4 -2.36-4.58e-4 -3.58-0.00444-1.04-0.00888-2.09-0.0135-3.16 0.241-2.48 0.241-2.48 2.24-4.48z" fill="#CF2B24"/>
<path transform="translate(1165,936)" d="m0 0c4.99 4.25 7.22 9.05 9.81 15 0.61 1.33 0.61 1.33 1.23 2.7 2.05 4.61 2.96 7.1 2.96 12.3h-25c-1.16-4.64-0.631-5.6 1.27-9.82 0.495-1.11 0.99-2.22 1.5-3.37 0.529-1.15 1.06-2.31 1.6-3.5 0.521-1.17 1.04-2.33 1.58-3.53 3.87-8.6 3.87-8.6 5.05-9.78z" fill="#FDFDFD"/>
<path transform="translate(1039,936)" d="m0 0c4.57 3.7 6.39 8.63 8.69 13.9 0.403 0.886 0.806 1.77 1.22 2.68 2.09 4.7 3.22 8.23 4.09 13.4h-26c-1.33-3.99-0.275-5.19 1.49-8.95 0.54-1.16 1.08-2.32 1.64-3.51 0.582-1.22 1.16-2.45 1.75-3.67 0.575-1.23 1.15-2.46 1.72-3.69 4.23-9.01 4.23-9.01 5.4-10.2z" fill="#FDFDFD"/>
<path transform="translate(1053,610)" d="m0 0h17c0.33 1.65 0.66 3.3 1 5h2v2c1.32 0.33 2.64 0.66 4 1 0.778 3.41 1.1 6.51 1 10-5.03 3.1-9.23 3.79-15 3-3.18-1.36-4.54-2.23-6.31-5.19-0.227-0.598-0.454-1.2-0.688-1.81h-2v-2h2v-3h-2c-0.33-1.32-0.66-2.64-1-4h3v-4c-0.99-0.33-1.98-0.66-3-1z" fill="#FCF9F7"/>
<path transform="translate(1375,926)" d="m0 0c1.32 0.33 2.64 0.66 4 1 0.33 20.1 0.66 40.3 1 61h-6c-1.74-1.74-1.14-4.13-1.15-6.5-0.00638-1.17-0.0128-2.35-0.0193-3.56-0.00111-1.28-0.00223-2.56-0.00337-3.88-0.00333-1.3-0.00666-2.61-0.0101-3.95-6e-3 -2.76-0.00784-5.53-0.00725-8.29 1.02e-4 -3.55-0.0135-7.09-0.0308-10.6-0.0138-3.37-0.0132-6.75-0.0144-10.1-0.00719-1.28-0.0144-2.55-0.0218-3.87 0.00308-1.18 0.00615-2.36 0.00932-3.57-0.00143-1.04-0.00285-2.08-0.00432-3.15 0.247-2.47 0.247-2.47 2.25-4.47z" fill="#CF2B24"/>
<path transform="translate(1127 867)" d="m0 0c0.788 0.00258 1.58 0.00516 2.39 0.00781 1.17-0.00387 1.17-0.00387 2.36-0.00781 2.24 0.128 4.18 0.514 6.32 1.13-0.114 1.79-0.241 3.58-0.375 5.38-0.0696 0.998-0.139 2-0.211 3.02-0.414 2.6-0.414 2.6-2.41 4.6v-2h-2c-0.495-2.48-0.495-2.48-1-5-7.19-3.5-14.6-0.836-21.9 1.44-4.34 1.55-7.91 3.18-11 6.69-2.98 2.63-5.2 2.74-9.12 2.88-2.02-0.602-4.02-1.27-6-2-2.66-0.445-5.31-0.722-8-1v-2h2v-2c0.935-0.147 1.87-0.294 2.83-0.445 8.76-1.47 17-3.68 25.4-6.49 5.32-1.73 10.3-2.78 15.9-2.96 2.27-0.13 2.47-1.08 4.76-1.24z" fill="#FCF9F7"/>
<path transform="translate(1e3 763)" d="m0 0c4.98 0.894 4.98 0.894 7.22 1.61 0.33 0.66 0.66 1.32 1 2-0.33 0.99-0.66 1.98-1 3 0.33 0.66 0.66 1.32 1 2-3.41 3.81-5.93 5.99-11 7-3.88-0.375-3.88-0.375-7-1 0.33-0.99 0.66-1.98 1-3h-2v2h-2c-1.98-2.97-2.29-3.66-2.31-7-0.0168-0.681-0.0335-1.36-0.0508-2.06 1.38-7.35 9.63-5.32 15.1-4.55z" fill="#FCFCFC"/>
<path transform="translate(670,599)" d="m0 0h3c1 3 1 3-0.152 5.97-10.4 20.5-10.4 20.5-19.8 26-1.02 1.32-2.03 2.64-3 4h-2c-0.66 1.32-1.32 2.64-2 4-0.33-0.66-0.66-1.32-1-2 1.4-2.73 2.85-5.32 4.44-7.94 0.459-0.768 0.917-1.54 1.39-2.33 3.18-5.27 6.57-10.3 10.3-15.2 2.6-3.47 4.97-7.09 7.34-10.7 0.509-0.594 1.02-1.19 1.54-1.8z" fill="#FCF9F7"/>
<path transform="translate(937 763)" d="m0 0c1.45 0.0406 1.45 0.0406 2.93 0.082 2.36 0.0701 4.72 0.168 7.07 0.293-3.95 2.63-6.55 3.12-11.2 3.06-0.901-0.00902-1.8-0.018-2.73-0.0273-0.687-0.0116-1.37-0.0232-2.08-0.0352v2h-2c-0.247 0.619-0.495 1.24-0.75 1.88-1.46 2.48-2.63 3.08-5.25 4.12-0.33-0.66-0.66-1.32-1-2l-4 2c-0.403-4.47-0.403-4.47 1.36-6.79 5.85-4.51 10.4-4.98 17.6-4.59z" fill="#FCFCFB"/>
<path transform="translate(1106,880)" d="m0 0c0.99 0.33 1.98 0.66 3 1l-2 1c0.33 0.66 0.66 1.32 1 2-4.18 4.29-7.25 5.8-13.3 6.15-4.79-0.266-9.22-1.63-13.7-3.15 0.624-0.153 1.25-0.307 1.89-0.465 1.3-0.329 2.59-0.688 3.86-1.1 2.25-0.438 2.25-0.438 6.06-0.25 4.71 0.088 7.3-1.62 11.2-4.19 0.66-0.33 1.32-0.66 2-1z" fill="#FCF9F7"/>
<path transform="translate(1059,880)" d="m0 0v1c-1.98 0.33-3.96 0.66-6 1 3.53 2.35 5.03 2.21 9.19 2.12 1.09-0.018 2.17-0.0361 3.29-0.0547 0.831-0.0232 1.66-0.0464 2.52-0.0703-3.31 2.77-5.44 3.47-9.84 3.29-3.64-0.487-6.97-1.46-10.2-3.29-1.38-2.12-1.38-2.12-2-4-0.66-0.33-1.32-0.66-2-1 5.69-1.19 9.43-0.663 15 1z" fill="#FCF9F7"/>
<path transform="translate(357,989)" d="m0 0-2 4c-0.557-0.186-1.11-0.371-1.69-0.562-4.97-0.941-9.53 1.3-14.1 3.04-2.45 0.587-3.83 0.326-6.18-0.477 8.1-5.45 14.3-6.83 24-6z" fill="#FCF9F7"/>
<path transform="translate(965 757)" d="m0 0c0.985 0.102 1.97 0.204 2.98 0.309 0.748 0.0838 1.5 0.168 2.27 0.254v2c-2.88 1.44-5.42 1.09-8.62 1.06-1.19-0.00902-2.38-0.018-3.6-0.0273-0.915-0.0116-1.83-0.0232-2.77-0.0352v2c-1.98 0.33-3.96 0.66-6 1 0.33-0.66 0.66-1.32 1-2h3v-2h2v-2c3.41-1.1 6.21-0.942 9.75-0.562z" fill="#FDFDFD"/>
<path transform="translate(908,785)" d="m0 0c0.33 0.66 0.66 1.32 1 2-0.667 1.33-1.33 2.67-2 4 0.33 0.66 0.66 1.32 1 2h-2v3h-2v2c-0.99-0.33-1.98-0.66-3-1 0.203-4.26 1.08-6.43 4.06-9.38 0.969-0.866 1.94-1.73 2.94-2.62z" fill="#FCF9F7"/>
<path transform="translate(785,565)" d="m0 0h2c2.01 4.02 1.22 8.26 0 12.4-0.33 0.846-0.66 1.69-1 2.56h-1c-0.144-1.07-0.289-2.14-0.438-3.25-0.43-3.53-0.43-3.53-1.25-5.94-0.426-2.47 0.416-3.72 1.69-5.81z" fill="#FCF9F7"/>
<path transform="translate(912,872)" d="m0 0v2h-2c0.309 0.866 0.309 0.866 0.625 1.75 0.462 2.77-0.196 3.9-1.62 6.25h-3c-0.33-0.66-0.66-1.32-1-2-0.66-0.33-1.32-0.66-2-1 1.12-1.17 2.25-2.34 3.38-3.5 0.94-0.975 0.94-0.975 1.9-1.97 1.73-1.53 1.73-1.53 3.73-1.53z" fill="#FCFBFA"/>
<path transform="translate(1125,862)" d="m0 0c1.42-0.0272 2.83-0.0465 4.25-0.0625 1.18-0.0174 1.18-0.0174 2.39-0.0352 2.27 0.0938 4.19 0.465 6.36 1.1v2l4 2c-5.85-0.515-11.3-1.45-17-3v-2z" fill="#FCF9F7"/>
<path transform="translate(462,563)" d="m0 0c2.11 1.71 2.94 2.52 3.29 5.26-0.0348 0.801-0.0696 1.6-0.105 2.43-0.0271 0.808-0.0541 1.62-0.082 2.45-0.0348 0.615-0.0696 1.23-0.105 1.86-2.51-1.26-2.87-2.5-4-5h-1c-0.125-2.38-0.125-2.38 0-5 0.66-0.66 1.32-1.32 2-2z" fill="#FCF9F7"/>
<path transform="translate(1197,977)" d="m0 0v2h2c0.66 2.31 1.32 4.62 2 7-2.88-0.625-2.88-0.625-6-2-1.38-3.12-1.38-3.12-2-6 2-1 2-1 4-1z" fill="#FCF9F7"/>
<path transform="translate(709,586)" d="m0 0c1.36 2.73 0.878 4.61 0.562 7.62-0.153 1.5-0.153 1.5-0.309 3.04-0.0838 0.771-0.168 1.54-0.254 2.34h2c-0.33 0.99-0.66 1.98-1 3h-1c-0.33 0.66-0.66 1.32-1 2-1.86-1.86-1.17-4.83-1.19-7.31-0.0142-1.15-0.0284-2.3-0.043-3.49 0.218-3.02 0.647-4.66 2.23-7.2z" fill="#FCF9F7"/>
<path transform="translate(455,952)" d="m0 0c3.16 1.37 3.99 1.99 6 5 0.125 3.19 0.125 3.19 0 6-0.619-0.804-1.24-1.61-1.88-2.44-1.87-2.6-1.87-2.6-4.12-3.56v-5z" fill="#FCF9F7"/>
<path transform="translate(344,994)" d="m0 0h13c-0.66 1.32-1.32 2.64-2 4-0.99-0.66-1.98-1.32-3-2h-3-6l1-2z" fill="#FCF9F7"/>
<path transform="translate(498,953)" d="m0 0c0.66 0.33 1.32 0.66 2 1 0.25 2.25 0.25 2.25 0 5-2 2.31-2 2.31-4 4-0.688-2.75-0.688-2.75-1-6 1.44-2.38 1.44-2.38 3-4z" fill="#FCF9F7"/>
<path transform="translate(502,758)" d="m0 0c0.99 0.33 1.98 0.66 3 1v10c-3-3-3-3-3.29-5.04 0.0977-1.99 0.195-3.97 0.293-5.96z" fill="#FCF9F7"/>
</svg>
